<svg display="none" xmlns="http://www.w3.org/2000/svg">
    <symbol id="facebook" viewBox="0 0 18 18">
        <g>
            <path d="M12.9103 9.99613L13.3767 6.92477H10.4589V4.93254C10.4589 4.09206 10.8658 3.27234 12.1726 3.27234H13.5V0.657536C13.5 0.657536 12.2959 0.450012 11.1452 0.450012C8.7411 0.450012 7.17123 1.92136 7.17123 4.5839V6.92477H4.5V9.99613H7.17123V17.4213C7.70753 17.5064 8.25616 17.55 8.81507 17.55C9.37397 17.55 9.9226 17.5064 10.4589 17.4213V9.99613H12.9103Z"/>
        </g>
    </symbol>

    <symbol id="telegram" viewBox="0 0 18 18">
        <g>
            <path fill-rule="evenodd" clip-rule="evenodd" d="M1.23741 8.4574C6.06923 6.34056 9.29121 4.945 10.9033 4.27074C15.5063 2.34558 16.4627 2.01116 17.0861 2.00012C17.2232 1.99769 17.5298 2.03186 17.7284 2.19389C17.8961 2.33071 17.9422 2.51553 17.9643 2.64524C17.9864 2.77496 18.0139 3.07046 17.992 3.30136C17.7426 5.93675 16.6633 12.3322 16.1142 15.2838C15.8818 16.5328 15.4244 16.9516 14.9815 16.9926C14.0189 17.0816 13.288 16.3529 12.3558 15.7384C10.897 14.7769 10.0729 14.1783 8.65691 13.24C7.02048 12.1556 8.08131 11.5596 9.01391 10.5856C9.25797 10.3307 13.4988 6.45188 13.5809 6.10001C13.5912 6.05601 13.6007 5.89197 13.5038 5.80535C13.4069 5.71873 13.2639 5.74835 13.1606 5.77191C13.0143 5.8053 10.6839 7.35418 6.16938 10.4185C5.5079 10.8753 4.90875 11.0978 4.37193 11.0862C3.78013 11.0733 2.64175 10.7497 1.79548 10.4731C0.757494 10.1338 -0.0674757 9.95442 0.00436067 9.37821C0.0417775 9.07809 0.452793 8.77115 1.23741 8.4574Z"/>
        </g>
    </symbol>

    <symbol id="viber" viewBox="0 0 18 18">
        <g>
            <path d="M15.3875 1.75569C14.9552 1.34296 13.208 0.0307474 9.31635 0.01292C9.31635 0.01292 4.72707 -0.2734 2.48987 1.84969C1.24452 3.1384 0.806425 5.02405 0.760214 7.36188C0.714002 9.69971 0.654215 14.0809 4.73621 15.2689H4.74013L4.73751 17.0816C4.73751 17.0816 4.71141 17.8155 5.17848 17.9652C5.74346 18.1467 6.07503 17.5889 6.61442 16.9876C6.91049 16.6575 7.31934 16.1727 7.62742 15.8021C10.4192 16.0452 12.5663 15.4896 12.8101 15.4075C13.3738 15.2184 16.5634 14.7954 17.0822 10.4147C17.6177 5.89922 16.8232 3.04305 15.3875 1.75569ZM15.8606 10.0908C15.4228 13.7487 12.8357 13.9786 12.3587 14.1369C12.1559 14.2044 10.2701 14.6898 7.89868 14.5296C7.89868 14.5296 6.13169 16.7351 5.57976 17.3085C5.4936 17.3982 5.39231 17.4344 5.32469 17.4166C5.22965 17.3925 5.20354 17.2761 5.20459 17.1059C5.20615 16.8628 5.21973 14.0936 5.21973 14.0936C5.21764 14.0936 5.21973 14.0936 5.21973 14.0936C1.76668 13.1018 1.96797 9.37287 2.00713 7.42023C2.0463 5.46758 2.40084 3.86797 3.45404 2.79211C5.34636 1.01882 9.24455 1.2838 9.24455 1.2838C12.5365 1.29866 14.114 2.32428 14.4797 2.66786C15.6943 3.74372 16.313 6.31817 15.8606 10.0898V10.0908Z" />
            <path fill-rule="evenodd" clip-rule="evenodd" d="M9.38324 5.84048C9.38957 5.71489 9.49311 5.6184 9.6145 5.62495C10.0687 5.64946 10.4465 5.79169 10.7156 6.07956C10.9837 6.36633 11.1151 6.76695 11.1382 7.24809C11.1442 7.37369 11.0507 7.48056 10.9293 7.48679C10.8079 7.49303 10.7046 7.39625 10.6985 7.27065C10.6788 6.85879 10.5696 6.57841 10.3992 6.39617C10.2299 6.21503 9.97148 6.10025 9.59156 6.07974C9.47018 6.07319 9.37691 5.96607 9.38324 5.84048Z" />
            <path fill-rule="evenodd" clip-rule="evenodd" d="M9.04979 4.61371C9.05866 4.48829 9.16413 4.39406 9.28536 4.40324C10.2096 4.47322 10.9535 4.79994 11.4954 5.41192L11.4955 5.41201C12.0315 6.01796 12.2862 6.77176 12.2678 7.65593C12.2651 7.78166 12.1645 7.88138 12.0429 7.87866C11.9214 7.87594 11.825 7.77181 11.8277 7.64608C11.844 6.86635 11.6224 6.22998 11.1708 5.71946C10.7206 5.21107 10.0912 4.92088 9.25323 4.85743C9.132 4.84825 9.04092 4.73914 9.04979 4.61371Z" />
            <path fill-rule="evenodd" clip-rule="evenodd" d="M8.66114 3.44755C8.66198 3.3218 8.76121 3.22057 8.88276 3.22144C10.16 3.23065 11.2396 3.67057 12.1065 4.54482C12.9805 5.42638 13.4128 6.62654 13.4238 8.11712C13.4247 8.24287 13.3269 8.34559 13.2053 8.34655C13.0838 8.34751 12.9845 8.24634 12.9836 8.12058C12.9733 6.72384 12.5717 5.65001 11.7992 4.87092C11.0195 4.08451 10.0514 3.68528 8.87969 3.67684C8.75814 3.67596 8.66029 3.57331 8.66114 3.44755Z" />
            <path d="M9.64685 10.3092C9.64685 10.3092 9.95623 10.3362 10.1228 10.1239L10.4476 9.70116C10.6042 9.49155 10.9823 9.35785 11.3525 9.57124C11.6299 9.73493 11.8993 9.91289 12.1595 10.1044C12.4052 10.2914 12.9083 10.7257 12.9098 10.7257C13.1495 10.935 13.2049 11.2424 13.0417 11.5666C13.0417 11.5685 13.0404 11.5717 13.0404 11.5733C12.8607 11.8956 12.6325 12.1863 12.3644 12.4344C12.3613 12.4361 12.3613 12.4377 12.3584 12.4393C12.1255 12.6406 11.8968 12.7551 11.6721 12.7826C11.639 12.7886 11.6053 12.7908 11.5718 12.7891C11.4727 12.7901 11.3741 12.7744 11.2799 12.7426L11.2726 12.7316C10.9264 12.6305 10.3484 12.3777 9.38577 11.8283C8.82873 11.5141 8.2984 11.1517 7.80049 10.7449C7.55092 10.5411 7.31286 10.3227 7.08748 10.0907L7.06346 10.0658L7.03944 10.041L7.01542 10.0161C7.00732 10.008 6.99949 9.99964 6.9914 9.99126C6.76715 9.75809 6.55603 9.51179 6.35906 9.25358C5.96593 8.7385 5.61561 8.18992 5.31187 7.61373C4.78083 6.61755 4.53646 6.02006 4.43881 5.66135L4.42811 5.65379C4.3975 5.5563 4.38242 5.4543 4.38347 5.3518C4.38164 5.31711 4.38365 5.28231 4.38947 5.24808C4.41749 5.01596 4.52828 4.77907 4.72183 4.53741C4.72339 4.53444 4.72496 4.53444 4.72652 4.5312C4.96628 4.25388 5.24725 4.0179 5.55885 3.83215C5.56042 3.83215 5.56355 3.83053 5.56538 3.83053C5.87867 3.66171 6.17578 3.71897 6.37786 3.96558C6.37943 3.96721 6.79846 4.48771 6.97834 4.74189C7.16351 5.01139 7.33552 5.29032 7.49372 5.57762C7.69997 5.96037 7.57074 6.3523 7.36814 6.51383L6.95955 6.84985C6.75329 7.02218 6.78045 7.34227 6.78045 7.34227C6.78045 7.34227 7.38563 9.71197 9.64685 10.3092Z" />
        </g>
    </symbol>

    <symbol id="instagram" viewBox="0 0 19 18">
        <g>
            <path d="M18.9467 5.28903C18.9011 4.33066 18.7377 3.67494 18.5059 3.10208C18.2626 2.51121 17.9395 2.00681 17.4112 1.50961C16.8829 1.01241 16.3546 0.698959 15.7313 0.471978C15.127 0.248599 14.4352 0.0972778 13.4242 0.0540432C12.4094 0.0108086 12.0864 0 9.50945 0C6.92874 0 6.60567 0.0108086 5.59467 0.0540432C4.58367 0.0972778 3.89193 0.252202 3.28761 0.471978C2.66048 0.702562 2.12838 1.00881 1.60387 1.50961C1.07937 2.01041 0.7487 2.51121 0.509252 3.10208C0.277406 3.67494 0.113973 4.33066 0.0683639 5.28903C0.0227548 6.251 0.0113525 6.55725 0.0113525 9C0.0113525 11.4464 0.0227548 11.7526 0.0683639 12.711C0.113973 13.6693 0.277406 14.3251 0.509252 14.8979C0.752501 15.4888 1.07557 15.9932 1.60387 16.4904C2.12838 16.9912 2.66048 17.301 3.28381 17.528C3.88813 17.7514 4.57987 17.9027 5.59087 17.946C6.60567 17.9892 6.92874 18 9.50565 18C12.0864 18 12.4094 17.9892 13.4204 17.946C14.4314 17.9027 15.1232 17.7478 15.7275 17.528C16.3508 17.2974 16.8829 16.9912 17.4074 16.4904C17.9319 15.9896 18.2626 15.4888 18.5021 14.8979C18.7377 14.3251 18.8973 13.6693 18.9429 12.711C18.9885 11.749 19 11.4428 19 9C19 6.55725 18.9923 6.2474 18.9467 5.28903ZM17.2402 12.6389C17.1984 13.518 17.0426 13.9972 16.9133 14.3106C16.7423 14.7286 16.5333 15.0312 16.1988 15.3483C15.8643 15.6653 15.5489 15.8563 15.1042 16.0256C14.7697 16.1481 14.2642 16.2958 13.3406 16.3355C12.341 16.3787 12.0408 16.3895 9.50185 16.3895C6.96294 16.3895 6.66268 16.3787 5.66308 16.3355C4.7357 16.2958 4.2302 16.1481 3.89953 16.0256C3.45864 15.8635 3.13938 15.6653 2.80491 15.3483C2.47044 15.0312 2.269 14.7322 2.09037 14.3106C1.96114 13.9936 1.80531 13.5144 1.7635 12.6389C1.71789 11.6914 1.70649 11.4067 1.70649 9C1.70649 6.59328 1.71789 6.30865 1.7635 5.36109C1.80531 4.48199 1.96114 4.0028 2.09037 3.68935C2.2614 3.27142 2.47044 2.96878 2.80491 2.65172C3.13938 2.33467 3.45484 2.14372 3.89953 1.97438C4.234 1.85188 4.7395 1.70416 5.66308 1.66453C6.66268 1.6213 6.96294 1.61049 9.50185 1.61049C12.0408 1.61049 12.341 1.6213 13.3406 1.66453C14.268 1.70416 14.7735 1.85188 15.1042 1.97438C15.5451 2.13651 15.8643 2.33467 16.1988 2.65172C16.5333 2.96878 16.7347 3.26781 16.9133 3.68935C17.0426 4.00641 17.1984 4.48559 17.2402 5.36109C17.2858 6.30865 17.2972 6.59328 17.2972 9C17.2972 11.4067 17.282 11.6914 17.2402 12.6389Z" />
            <path d="M9.502 4.37378C6.80346 4.37378 4.62183 6.44544 4.62183 8.99988C4.62183 11.5579 6.80726 13.626 9.502 13.626C12.1967 13.626 14.3822 11.5507 14.3822 8.99988C14.3822 6.44183 12.2005 4.37378 9.502 4.37378ZM9.502 12.0011C7.75365 12.0011 6.33597 10.6572 6.33597 8.99988C6.33597 7.34255 7.75365 5.99868 9.502 5.99868C11.2504 5.99868 12.668 7.34255 12.668 8.99988C12.668 10.6572 11.2504 12.0011 9.502 12.0011Z"/>
            <path d="M14.5721 5.27452C15.2018 5.27452 15.7123 4.7906 15.7123 4.19366C15.7123 3.59671 15.2018 3.11279 14.5721 3.11279C13.9424 3.11279 13.4319 3.59671 13.4319 4.19366C13.4319 4.7906 13.9424 5.27452 14.5721 5.27452Z" />
        </g>
    </symbol>

    <symbol id="linkedin" viewBox="0 0 18 18">
        <g>
            <path d="M0 2.40127C0 1.82211 0.202708 1.34431 0.608108 0.96787C1.01351 0.591416 1.54055 0.403198 2.18919 0.403198C2.82626 0.403198 3.34169 0.588515 3.73552 0.959183C4.14092 1.34142 4.34363 1.83948 4.34363 2.45339C4.34363 3.00938 4.14672 3.47268 3.7529 3.84335C3.3475 4.22559 2.81467 4.41671 2.15444 4.41671H2.13707C1.49999 4.41671 0.984562 4.22559 0.590734 3.84335C0.196905 3.46111 0 2.98041 0 2.40127ZM0.225869 17.604V5.99779H4.08301V17.604H0.225869ZM6.22008 17.604H10.0772V11.1233C10.0772 10.7179 10.1236 10.4051 10.2162 10.1851C10.3784 9.79122 10.6245 9.45821 10.9546 9.18602C11.2847 8.91381 11.6988 8.77772 12.1969 8.77772C13.4942 8.77772 14.1429 9.65223 14.1429 11.4013V17.604H18V10.9495C18 9.23524 17.5946 7.93505 16.7838 7.04895C15.973 6.16285 14.9015 5.7198 13.5695 5.7198C12.0753 5.7198 10.9112 6.36266 10.0772 7.64837V7.68312H10.0598L10.0772 7.64837V5.99779H6.22008C6.24324 6.36844 6.25483 7.52095 6.25483 9.45532C6.25483 11.3897 6.24324 14.1059 6.22008 17.604Z"/>
        </g>
    </symbol>

    <symbol id="tiktok" viewBox="0 0 18 18">
        <g>
            <path d="M12.9302 0H9.82268V12.2608C9.82268 13.7218 8.62751 14.9218 7.14015 14.9218C5.65279 14.9218 4.4576 13.7218 4.4576 12.2608C4.4576 10.8261 5.62624 9.65215 7.06049 9.6V6.52175C3.89984 6.5739 1.3501 9.10435 1.3501 12.2608C1.3501 15.4435 3.95296 18 7.16672 18C10.3804 18 12.9833 15.4174 12.9833 12.2608V5.9739C14.152 6.8087 15.5862 7.30435 17.1001 7.33045V4.25217C14.7628 4.17391 12.9302 2.29565 12.9302 0Z"/>
        </g>
    </symbol>

    <symbol id="whatsApp" viewBox="0 0 18 18">
        <g>
            <path d="M0 18L1.2722 13.3802C0.485673 12.0242 0.0730658 10.4886 0.0773638 8.91873C0.0773638 3.99953 4.10028 0 9.03867 0C11.437 0 13.6891 0.928232 15.3782 2.61359C17.0716 4.29895 18.0043 6.5404 18 8.92301C18 13.8422 13.9771 17.8417 9.03438 17.8417H9.03008C7.53008 17.8417 6.05587 17.4653 4.74498 16.7552L0 18ZM4.97277 15.1426L5.24355 15.3051C6.38681 15.981 7.6977 16.336 9.03438 16.3403H9.03867C13.1433 16.3403 16.4871 13.0166 16.4871 8.92728C16.4871 6.94677 15.7135 5.08603 14.308 3.68299C12.9026 2.27994 11.0286 1.50998 9.03867 1.50998C4.93409 1.5057 1.59026 4.82937 1.59026 8.91873C1.59026 10.3175 1.98137 11.682 2.72922 12.8626L2.90544 13.145L2.15329 15.8783L4.97277 15.1426Z" />
            <path d="M0 18L1.2722 13.3802C0.485673 12.0242 0.0730658 10.4886 0.0773638 8.91873C0.0773638 3.99953 4.10028 0 9.03867 0C11.437 0 13.6891 0.928232 15.3782 2.61359C17.0716 4.29895 18.0043 6.5404 18 8.92301C18 13.8422 13.9771 17.8417 9.03438 17.8417H9.03008C7.53008 17.8417 6.05587 17.4653 4.74498 16.7552L0 18ZM4.97277 15.1426L5.24355 15.3051C6.38681 15.981 7.6977 16.336 9.03438 16.3403H9.03867C13.1433 16.3403 16.4871 13.0166 16.4871 8.92728C16.4871 6.94677 15.7135 5.08603 14.308 3.68299C12.9026 2.27994 11.0286 1.50998 9.03867 1.50998C4.93409 1.5057 1.59026 4.82937 1.59026 8.91873C1.59026 10.3175 1.98137 11.682 2.72922 12.8626L2.90544 13.145L2.15329 15.8783L4.97277 15.1426Z" />
            <path fill-rule="evenodd" clip-rule="evenodd" d="M6.79938 5.1887C6.63176 4.81655 6.45554 4.80799 6.29651 4.80372C6.16757 4.79944 6.01714 4.79944 5.86672 4.79944C5.71629 4.79944 5.4756 4.85505 5.26929 5.07748C5.06299 5.29991 4.48706 5.83889 4.48706 6.93822C4.48706 8.03328 5.29078 9.09412 5.40253 9.24383C5.51428 9.39355 6.95411 11.7163 9.22774 12.6103C11.1189 13.3546 11.5057 13.2049 11.914 13.1664C12.3223 13.1279 13.2378 12.6274 13.4269 12.1055C13.6117 11.5837 13.6117 11.1388 13.5558 11.0447C13.4999 10.9506 13.3495 10.895 13.126 10.7838C12.9025 10.6725 11.8022 10.1336 11.5959 10.0566C11.3896 9.98385 11.2392 9.94535 11.0931 10.1678C10.9426 10.3902 10.5128 10.8907 10.3839 11.0404C10.255 11.1901 10.1217 11.2072 9.89823 11.096C9.67473 10.9848 8.95267 10.7495 8.09737 9.98813C7.43118 9.39782 6.97989 8.66636 6.85095 8.44393C6.72201 8.22149 6.83806 8.10172 6.94981 7.9905C7.04866 7.89212 7.1733 7.72957 7.28505 7.60124C7.3968 7.47292 7.43548 7.37881 7.50855 7.2291C7.58161 7.07938 7.54723 6.95105 7.49136 6.83984C7.43548 6.7329 6.99709 5.62929 6.79938 5.1887Z"/>
        </g>
    </symbol>

    <symbol id="youTube" viewBox="0 0 18 18">
        <g>
            <path fill-rule="evenodd" clip-rule="evenodd" d="M16.0428 3.08545C16.8138 3.29303 17.4217 3.90093 17.6292 4.67194C18.0147 6.0805 17.9999 9.01623 17.9999 9.01623C17.9999 9.01623 17.9999 11.9371 17.6292 13.3457C17.4217 14.1167 16.8138 14.7246 16.0428 14.9322C14.6342 15.3029 8.99996 15.3029 8.99996 15.3029C8.99996 15.3029 3.38055 15.3029 1.95716 14.9174C1.18616 14.7098 0.578251 14.1019 0.370674 13.3309C0 11.9371 0 9.00141 0 9.00141C0 9.00141 0 6.0805 0.370674 4.67194C0.578251 3.90093 1.20098 3.2782 1.95716 3.07063C3.36572 2.69995 8.99996 2.69995 8.99996 2.69995C8.99996 2.69995 14.6342 2.69995 16.0428 3.08545ZM11.8912 9.00148L7.20593 11.7V6.30298L11.8912 9.00148Z" />
        </g>
    </symbol>

    <symbol id="mail" viewBox="0 0 20 14">
        <g>
            <path d="M1.46341 0.333344C1.17966 0.333344 0.917439 0.413727 0.69361 0.549132L9.25305 7.63989C9.71037 8.01877 10.2736 8.01875 10.7317 7.63989L19.3064 0.549132C19.0826 0.413727 18.8203 0.333344 18.5366 0.333344H1.46341ZM0.0838536 1.29318C0.0316584 1.4403 0 1.59703 0 1.76191V12.2381C0 13.0295 0.652683 13.6667 1.46341 13.6667H18.5366C19.3473 13.6667 20 13.0295 20 12.2381V1.76191C20 1.59703 19.9683 1.4403 19.9161 1.29318L11.3643 8.36906C10.5712 9.02496 9.41334 9.02601 8.62044 8.36906L0.0838536 1.29318Z" />
        </g>
    </symbol>

    <symbol id="mapPoint" viewBox="0 0 12 18">
        <g>
            <path d="M6 0.428558C2.70701 0.428558 0 2.87415 0 6.3626C0 7.60752 0.307899 8.47352 0.879808 9.43266L5.59615 17.3447C5.63608 17.4134 5.69459 17.4706 5.76561 17.5105C5.83663 17.5504 5.91756 17.5714 6 17.5714C6.08244 17.5714 6.16337 17.5504 6.23439 17.5105C6.30541 17.4706 6.36392 17.4134 6.40385 17.3447L11.1202 9.43266C11.6921 8.4735 12 7.6075 12 6.3626C12 2.87415 9.29299 0.428558 6 0.428558ZM6 3.50547C7.5294 3.50547 8.76923 4.68626 8.76923 6.14282C8.76923 7.59937 7.5294 8.78017 6 8.78017C4.4706 8.78017 3.23077 7.59937 3.23077 6.14282C3.23077 4.68626 4.4706 3.50547 6 3.50547Z" />
        </g>
    </symbol>

    <symbol id="phone" viewBox="0 0 22 21">
        <g>
            <path d="M22 10.5025C22 10.8437 21.7099 11.1203 21.3521 11.1203C20.9943 11.1203 20.7043 10.8437 20.7043 10.5025C20.7043 5.38454 16.3534 1.23559 10.9863 1.23559C10.6285 1.23559 10.3384 0.958996 10.3384 0.617796C10.3384 0.276597 10.6285 0 10.9863 0C17.069 0 22 4.70215 22 10.5025ZM18.1128 10.5025C18.1128 10.8437 17.8227 11.1203 17.4649 11.1203C17.1071 11.1203 16.8171 10.8437 16.8171 10.5025C16.8171 7.43174 14.2065 4.94237 10.9863 4.94237C10.6285 4.94237 10.3384 4.66577 10.3384 4.32457C10.3384 3.98337 10.6285 3.70678 10.9863 3.70678C14.9222 3.70678 18.1128 6.74934 18.1128 10.5025ZM18.4259 18.2823L16.2482 20.3589C14.3054 22.2115 8.07722 19.7762 4.68036 16.537C1.28318 13.2975 -1.27056 7.35891 0.672421 5.5061L2.85015 3.42945C3.50043 2.80935 4.53018 2.86133 5.11283 3.54043L8.00128 6.907C8.55264 7.54962 8.50353 8.52281 7.88858 9.10922L6.51272 10.4212C6.33912 10.5868 6.29163 10.93 6.41372 11.1241C6.45107 11.1918 6.47915 11.2425 6.52496 11.3191C6.60505 11.4529 6.70419 11.6056 6.82297 11.7735C7.16639 12.259 7.59603 12.7639 8.11658 13.2603C8.63711 13.7566 9.16721 14.1667 9.67739 14.4948C9.85388 14.6083 10.0144 14.7031 10.1552 14.7798C10.2357 14.8236 10.2892 14.8505 10.3118 14.8611C10.5617 14.9979 10.9225 14.9531 11.0938 14.7897L12.4697 13.4777C13.0844 12.8915 14.1057 12.8449 14.7791 13.3702L18.3095 16.1246C19.0224 16.6808 19.0768 17.6616 18.4259 18.2823ZM5.5965 9.54752L6.97236 8.23552C7.11591 8.09864 7.12888 7.84146 6.99842 7.6894L4.10999 4.32284C4.01161 4.20817 3.87329 4.20119 3.76637 4.30315L1.58864 6.3798C0.36998 7.5419 2.65694 12.8601 5.59658 15.6633C8.53591 18.4662 14.1135 20.6471 15.3319 19.4852L17.5097 17.4086C17.6172 17.306 17.61 17.1753 17.489 17.0809L13.9586 14.3265C13.7996 14.2025 13.5291 14.2148 13.3859 14.3514L12.01 15.6634C11.4287 16.2177 10.4381 16.3455 9.72231 15.9615C9.55622 15.8823 9.29091 15.7366 8.95287 15.5192C8.37644 15.1485 7.78217 14.6888 7.20036 14.134C6.61859 13.5792 6.13688 13.0131 5.74878 12.4645C5.52281 12.145 5.37092 11.8939 5.28775 11.7356C4.87545 11.0532 5.01261 10.1043 5.5965 9.54752Z"/>
        </g>
    </symbol>

    <symbol id="logo" viewBox="0 0 171 45">
        <g>
            <path d="M52.5846 18.7546C51.0325 18.7546 50.4437 18.6749 50.0423 18.0905C49.6677 17.5326 49.5874 16.5497 49.5874 14.7168V9.98834C49.5874 8.63356 49.6944 7.49129 50.1494 6.93344C50.5775 6.37559 51.2198 6.2959 52.5846 6.2959H55.3677V8.42105H52.6381C52.2635 8.42105 52.1564 8.5273 52.1564 8.95233V11.4494H55.1804V13.5745H52.1832V16.0981C52.1832 16.5232 52.2902 16.6294 52.6649 16.6294H55.3944V18.7546H52.5846Z" fill="#F3C231"/>
            <path d="M56.8396 18.7546C57.0002 18.1436 57.0269 17.7186 57.0537 16.7888L57.2678 11.5025C57.3213 9.77582 57.91 9.19141 59.7297 9.19141H63.5565V18.7546H61.2283V10.9447H60.3452C59.81 10.9447 59.5959 11.1837 59.5424 11.7416L59.3551 16.8419C59.3283 17.7186 59.3016 18.1702 59.141 18.7546H56.8396Z" fill="#F3C231"/>
            <path d="M71.8254 14.9824H67.6775V16.0184C67.6775 16.7357 67.9451 16.9748 68.9085 16.9748H71.7986V18.7811H67.6507C65.6437 18.7811 65.4028 18.2498 65.4028 16.2841V11.2369C65.4028 9.61644 66.0451 9.19141 67.7845 9.19141H69.4169C71.424 9.19141 71.8521 9.66957 71.8521 11.3431V14.9824H71.8254ZM67.6775 12.1135V13.4417H69.4972V12.1135C69.4972 11.3697 69.2028 10.9712 68.5873 10.9712C67.9451 10.9712 67.6775 11.3697 67.6775 12.1135Z" fill="#F3C231"/>
            <path d="M73.5381 18.7546V9.19141H75.8663V13.0167H76.6691C77.3648 13.0167 77.6325 12.6713 77.6325 11.5822V10.9712C77.6325 10.1743 77.686 9.74926 77.8465 9.19141H80.1747C79.9606 9.72269 79.9606 9.98834 79.9606 11.104V11.5025C79.9606 12.937 79.5325 13.4151 78.0606 13.8136C79.3987 14.0527 79.9606 14.6371 79.9606 15.8059V16.8419C79.9606 17.9311 79.9874 18.1967 80.1747 18.8077H77.8465C77.686 18.2233 77.6325 17.7717 77.6325 16.8951V16.1513C77.6325 15.3543 77.2846 14.9824 76.7226 14.9824H75.8663V18.8077H73.5381V18.7546Z" fill="#F3C231"/>
            <path d="M82.717 18.7546V10.9447H81.1917V9.19141H86.5705V10.9447H85.0452V18.7546H82.717Z" fill="#F3C231"/>
            <path d="M87.9084 21.8364V9.1918H90.2366V10.1216C90.6648 9.29806 90.9859 9.13867 91.8958 9.13867H92.3507C93.2606 9.13867 93.7155 9.27149 93.9831 9.61683C94.2507 9.96217 94.3577 10.6263 94.3577 11.5029V16.7361C94.3577 17.6393 94.2775 18.0643 93.9563 18.3565C93.6352 18.6753 93.2338 18.7815 92.6451 18.7815H92.1634C91.1197 18.7815 90.8521 18.6487 90.2366 17.8252V21.8099H87.9084V21.8364ZM92.0296 15.8595V12.1139C92.0296 11.2904 91.7887 10.945 91.1197 10.945C90.5042 10.945 90.2099 11.2904 90.2099 12.0607V15.886C90.2099 16.6564 90.5042 17.0017 91.1197 17.0017C91.7887 17.0017 92.0296 16.6564 92.0296 15.8595Z" fill="#F3C231"/>
            <path d="M98.7197 18.7813C96.338 18.7813 96.0972 18.3829 96.0972 16.2312V11.7152C96.0972 9.51038 96.3915 9.16504 98.7197 9.16504H100.031C102.413 9.16504 102.627 9.5635 102.627 11.7152V16.2312C102.627 18.4094 102.332 18.7813 100.031 18.7813H98.7197ZM100.299 15.8593V12.0871C100.299 11.2902 100.084 10.9714 99.3084 10.9714C98.6127 10.9714 98.3718 11.3168 98.3718 12.0871V15.8593C98.3718 16.6562 98.6127 16.975 99.362 16.975C100.058 17.0015 100.299 16.6562 100.299 15.8593Z" fill="#F3C231"/>
            <path d="M104.42 18.755V9.13867H106.695C108.033 9.5637 109.023 10.4403 109.665 12.4327C110.307 10.52 111.297 9.5637 112.582 9.13867H114.937V18.755H112.609V11.5029C111.619 11.8217 111.03 13.2296 110.816 14.6906V18.755H108.488V14.6906C108.273 13.2296 107.685 11.8217 106.695 11.5029V18.755H104.42Z" fill="#F3C231"/>
            <path d="M119.379 18.7813C116.997 18.7813 116.756 18.3829 116.756 16.2312V11.7152C116.756 9.51038 117.051 9.16504 119.379 9.16504H120.69C123.072 9.16504 123.286 9.5635 123.286 11.7152V16.2312C123.286 18.4094 122.992 18.7813 120.69 18.7813H119.379ZM120.985 15.8593V12.0871C120.985 11.2902 120.77 10.9714 119.994 10.9714C119.299 10.9714 119.058 11.3168 119.058 12.0871V15.8593C119.058 16.6562 119.299 16.975 120.048 16.975C120.744 17.0015 120.985 16.6562 120.985 15.8593Z" fill="#F3C231"/>
            <path d="M125.106 18.7546V9.19141H127.434V12.9901H129.307V9.19141H131.635V18.7546H129.307V14.7965H127.434V18.7546H125.106Z" fill="#F3C231"/>
            <path d="M134.472 18.7546V10.9447H132.947V9.19141H138.325V10.9447H136.8V18.7546H134.472Z" fill="#F3C231"/>
            <path d="M141.617 18.8081C140.654 18.8081 140.279 18.7018 139.985 18.3299C139.717 17.9846 139.61 17.3205 139.61 16.4173V11.2107C139.61 10.3075 139.69 9.88247 140.011 9.5637C140.306 9.27149 140.761 9.13867 141.323 9.13867H141.804C142.848 9.13867 143.115 9.29806 143.731 10.1216V9.21836H146.059V18.7815H143.731V17.8518C143.276 18.7018 143.008 18.8347 142.099 18.8347H141.617V18.8081ZM143.731 15.8595V12.0342C143.731 11.2373 143.437 10.9185 142.821 10.9185C142.152 10.9185 141.911 11.2638 141.911 12.0873V15.8329C141.911 16.6564 142.152 17.0017 142.821 17.0017C143.437 16.9752 143.731 16.6033 143.731 15.8595Z" fill="#F3C231"/>
            <path d="M147.611 18.755C147.799 18.144 147.825 17.8783 147.825 16.7892V15.7532C147.825 14.5844 148.361 14.0265 149.725 13.7609C148.227 13.3624 147.825 12.9108 147.825 11.4498V11.0513C147.825 9.9356 147.799 9.69652 147.611 9.13867H149.94C150.1 9.69652 150.154 10.1216 150.154 10.9185V11.5295C150.154 12.6452 150.394 12.9639 151.037 12.9639H151.84V9.1918H154.168V13.0171H154.97C155.613 13.0171 155.854 12.6717 155.854 11.5826V10.9716C155.854 10.1747 155.907 9.74965 156.068 9.1918H158.396C158.182 9.72309 158.155 9.98873 158.155 11.1044V11.5029C158.155 12.9374 157.754 13.4155 156.282 13.814C157.62 14.0531 158.155 14.6375 158.155 15.8063V16.8423C158.155 17.9315 158.182 18.1971 158.396 18.8081H156.068C155.907 18.2237 155.854 17.7721 155.854 16.8955V16.1517C155.854 15.3547 155.559 14.9828 155.024 14.9828H154.141V18.8081H151.813V14.9297H150.956C150.421 14.9297 150.127 15.3282 150.127 16.0985V16.8423C150.127 17.6924 150.073 18.1705 149.913 18.755H147.611Z" fill="#F3C231"/>
            <path d="M159.921 18.7546V9.19141H162.249V12.9901H164.123V9.19141H166.451V18.7546H164.123V14.7965H162.249V18.7546H159.921Z" fill="#F3C231"/>
            <path d="M168.672 8.2351V6.2959H171V8.2351H168.672ZM168.672 18.7546V9.19141H171V18.7546H168.672Z" fill="#F3C231"/>
            <path d="M49.6943 41.2018V28.7432H54.0831C56.3577 28.7432 56.8126 29.487 56.8126 32.0637V32.8606C56.8126 35.5436 56.438 36.3406 54.2972 36.3406H52.2901V41.2284H49.6943V41.2018ZM52.2901 34.1889H53.1465C53.9493 34.1889 54.2169 33.8435 54.2169 32.5419C54.2169 31.2402 53.8957 30.8683 53.0929 30.8683H52.2901V34.1889Z" fill="#F3C231"/>
            <path d="M60.8803 41.2276C58.4987 41.2276 58.2578 40.8292 58.2578 38.6774V34.1615C58.2578 31.9567 58.5522 31.6113 60.8803 31.6113H62.1916C64.5733 31.6113 64.7874 32.0098 64.7874 34.1615V38.6774C64.7874 40.8557 64.493 41.2276 62.1916 41.2276H60.8803ZM62.486 38.3055V34.5334C62.486 33.7365 62.2719 33.4177 61.4958 33.4177C60.8001 33.4177 60.5592 33.763 60.5592 34.5334V38.3055C60.5592 39.1025 60.8001 39.4212 61.5494 39.4212C62.2451 39.4212 62.486 39.0759 62.486 38.3055Z" fill="#F3C231"/>
            <path d="M69.1762 41.2278C66.7946 41.2278 66.5537 40.8559 66.5537 38.7308V32.1428C66.5537 29.5926 67.5171 28.902 70.1129 28.902H71.1833C72.227 28.902 72.4143 28.8754 72.9763 28.6895V30.8677C72.441 31.0271 72.0396 31.0802 71.2636 31.0802H69.6579C68.6946 31.0802 68.3734 31.4256 68.3734 32.3022V33.5507C68.8284 32.7804 69.2833 32.5678 70.1931 32.5678H70.7819C72.896 32.5678 73.1101 32.9132 73.1101 35.0649V38.7308C73.1101 40.9091 72.8157 41.2278 70.5143 41.2278H69.1762ZM70.7819 38.3057V35.4634C70.7819 34.6664 70.5678 34.3477 69.8185 34.3477C69.1227 34.3477 68.8551 34.693 68.8551 35.4634V38.3057C68.8551 39.1027 69.096 39.4214 69.8453 39.4214C70.541 39.4214 70.7819 39.0761 70.7819 38.3057Z" fill="#F3C231"/>
            <path d="M77.4719 41.2276C75.0902 41.2276 74.8494 40.8292 74.8494 38.6774V34.1615C74.8494 31.9567 75.1437 31.6113 77.4719 31.6113H78.7832C81.1649 31.6113 81.3789 32.0098 81.3789 34.1615V38.6774C81.3789 40.8557 81.0846 41.2276 78.7832 41.2276H77.4719ZM79.0508 38.3055V34.5334C79.0508 33.7365 78.8367 33.4177 78.0606 33.4177C77.3649 33.4177 77.124 33.763 77.124 34.5334V38.3055C77.124 39.1025 77.3649 39.4212 78.1141 39.4212C78.8099 39.4212 79.0508 39.0759 79.0508 38.3055Z" fill="#F3C231"/>
            <path d="M84.1889 41.2018V33.3919H82.6636V31.6387H88.0424V33.3919H86.5171V41.2018H84.1889Z" fill="#F3C231"/>
            <path d="M94.0635 31.6387H96.0705V41.2018H94.0367V36.5531C94.0367 36.128 94.0635 35.703 94.0635 35.2514C93.9029 35.7296 93.7156 36.1546 93.5283 36.6062L91.3874 41.2018H89.3804V31.6387H91.4142V36.0749C91.4142 36.6062 91.3874 37.1375 91.3874 37.6688C91.5747 37.0844 91.7888 36.4999 92.0564 35.9687L94.0635 31.6387Z" fill="#F3C231"/>
            <path d="M36.6084 23.0316C36.4746 23.0582 36.3408 23.0582 36.207 23.0848C36.1535 24.5724 35.7253 26.8303 35.1366 28.557C34.4943 30.4165 33.4507 32.3026 32.1929 33.8699C31.0422 35.3044 29.6774 36.5529 28.0718 37.5092C26.0648 38.7312 23.8704 39.5015 21.5155 39.7937C19.4014 40.0594 17.2873 39.9531 15.2267 39.4484C14.4507 39.2624 13.7014 39.0499 12.9788 38.7577C12.9521 38.7577 12.9521 38.7577 12.9253 38.7312C11.6943 38.253 10.5169 37.6686 9.41968 36.8982C7.65348 35.7028 6.10137 34.2418 4.87038 32.462C4.33517 31.6916 3.85348 30.8947 3.42531 30.0712C3.39855 30.0181 3.37179 29.9384 3.34503 29.8852C2.94362 29.0883 2.59574 28.2382 2.38165 27.3351C2.32813 27.1225 2.27461 26.91 2.22109 26.6709C1.33799 22.3941 1.6056 18.25 3.69292 14.2388C5.78024 10.2276 9.04503 7.51805 13.1929 5.73824C13.2197 5.73824 13.2197 5.73824 13.2464 5.71168C14.8253 5.04757 16.4577 4.70223 18.1436 4.56941C18.6253 4.54285 19.107 4.51628 19.6155 4.48972C19.6422 4.48972 19.669 4.48972 19.669 4.48972C20.9267 4.46315 22.1577 4.59597 23.3887 4.83505C23.469 4.83505 23.576 4.86162 23.6563 4.88818C23.7366 4.91475 23.8436 4.91475 23.9239 4.94131C24.6464 5.1007 25.369 5.31321 26.0648 5.55229C26.2521 5.60542 26.4394 5.68511 26.6267 5.76481C26.7605 5.81793 26.9211 5.87106 27.0549 5.92419C27.1619 5.97732 27.269 6.03045 27.376 6.05701C27.5098 6.11014 27.6436 6.18984 27.7774 6.24296C27.8845 6.29609 28.0183 6.34922 28.1253 6.40235C28.2591 6.45548 28.3662 6.53517 28.5 6.5883C28.607 6.64143 28.7408 6.72112 28.8478 6.77425C28.9549 6.82738 29.0887 6.90707 29.1957 6.9602C29.3295 7.03989 29.4366 7.11959 29.5704 7.19928C29.6774 7.25241 29.7845 7.3321 29.8915 7.38523C30.0253 7.46492 30.1591 7.57118 30.2929 7.65087C30.3732 7.704 30.4802 7.7837 30.5605 7.83682C30.6943 7.94308 30.8549 8.04934 30.9887 8.1556C31.069 8.20873 31.1493 8.26185 31.2028 8.31498C31.4169 8.47437 31.6309 8.66032 31.845 8.81971C33.5309 10.2276 34.9493 11.9543 36.1 13.8404C36.1267 13.8669 36.1267 13.8935 36.1535 13.9201C36.0197 13.6013 35.8591 13.3091 35.6986 12.9903C34.7887 11.3168 33.5845 9.77602 32.1394 8.47437C31.0155 7.43836 29.7577 6.56174 28.4197 5.81793C28.3126 5.76481 28.1788 5.68511 28.0718 5.63198C28.045 5.63198 28.045 5.60542 28.0183 5.60542C27.938 5.55229 27.8309 5.52573 27.7507 5.4726C27.5901 5.3929 27.4028 5.31321 27.2155 5.23352C27.1352 5.18039 27.0281 5.15383 26.9211 5.1007C26.7605 5.021 26.6 4.96788 26.4394 4.88818C25.7704 4.62254 25.0746 4.38346 24.3788 4.19751C24.2986 4.17094 24.245 4.14438 24.1648 4.14438C22.7197 3.74592 21.2211 3.5334 19.6957 3.50684H19.5619C19.1338 3.50684 18.7056 3.50684 18.3042 3.5334C18.1971 3.5334 18.1169 3.5334 18.0366 3.5334C16.2971 3.61309 14.5845 3.9053 12.8718 4.59597C12.845 4.59597 12.845 4.59597 12.8183 4.62254C8.29574 6.53517 4.73658 9.29786 2.38165 13.5482C-3.83888e-05 17.825 -0.481729 22.3941 0.428131 27.1491C0.481652 27.3616 0.508412 27.6007 0.561933 27.8132C0.561933 27.8132 0.561933 27.8132 0.561933 27.8398C0.829539 28.9555 1.23095 30.0446 1.7394 31.0541C2.16757 31.9307 2.67602 32.8073 3.23799 33.6574C4.54926 35.6497 6.23517 37.3233 8.18869 38.7312C10.1422 40.1391 12.3098 41.122 14.6648 41.7595C17.0197 42.397 19.4281 42.5033 21.8366 42.3173C23.3887 42.1845 24.8873 41.7595 26.3591 41.3079C26.4662 41.2813 26.5732 41.2282 26.6535 41.2016C29.6774 39.9266 32.2197 38.2264 34.3338 35.756C35.9662 33.8965 37.0901 31.851 38.0267 29.6196C38.5352 28.3976 38.8028 27.2022 39.0704 25.9271C39.2845 24.838 39.338 23.7489 39.3915 22.6332C38.4817 22.766 37.545 22.8988 36.6084 23.0316Z" fill="#F3C231"/>
            <path d="M31.6579 18.0372L20.3917 19.6311L28.5804 0L7.81421 27.9988L17.6086 26.5909L8.96491 45L31.6579 18.0372Z" fill="#F3C231"/>
        </g>    
    </symbol>

    <symbol id="logo-mob" width="134" height="36" viewBox="0 0 134 36">
        <g>
            <path d="M41.2066 15.7195C39.9903 15.7195 39.529 15.657 39.2144 15.1991C38.9208 14.7619 38.8579 13.9917 38.8579 12.5554V8.85004C38.8579 7.78839 38.9418 6.89329 39.2983 6.45614C39.6338 6.01899 40.1371 5.95654 41.2066 5.95654H43.3875V7.62186H41.2485C40.9549 7.62186 40.8711 7.70513 40.8711 8.03819V9.99494H43.2407V11.6603H40.892V13.6378C40.892 13.9709 40.9759 14.0542 41.2695 14.0542H43.4085V15.7195H41.2066Z" fill="#F3C231"/>
            <path d="M44.54 15.7195C44.6659 15.2407 44.6868 14.9077 44.7078 14.1791L44.8756 10.0366C44.9175 8.68355 45.3789 8.22559 46.8048 8.22559H49.8036V15.7195H47.9792V9.59948H47.2871C46.8677 9.59948 46.7 9.78682 46.658 10.224L46.5112 14.2207C46.4903 14.9077 46.4693 15.2616 46.3435 15.7195H44.54Z" fill="#F3C231"/>
            <path d="M56.2838 12.7636H53.0334V13.5754C53.0334 14.1375 53.2432 14.3248 53.9981 14.3248H56.2629V15.7403H53.0125C51.4397 15.7403 51.251 15.324 51.251 13.7836V9.82846C51.251 8.55865 51.7543 8.22559 53.1173 8.22559H54.3965C55.9693 8.22559 56.3048 8.60028 56.3048 9.91172V12.7636H56.2838ZM53.0334 10.5154V11.5562H54.4594V10.5154C54.4594 9.93254 54.2288 9.62029 53.7464 9.62029C53.2432 9.62029 53.0334 9.93254 53.0334 10.5154Z" fill="#F3C231"/>
            <path d="M57.6255 15.7195V8.22559H59.4499V11.2232H60.079C60.6242 11.2232 60.8339 10.9525 60.8339 10.0991V9.62029C60.8339 8.9958 60.8759 8.66273 61.0017 8.22559H62.8261C62.6584 8.64192 62.6584 8.85008 62.6584 9.72437V10.0366C62.6584 11.1607 62.3228 11.5354 61.1695 11.8477C62.218 12.035 62.6584 12.493 62.6584 13.4089V14.2207C62.6584 15.0742 62.6793 15.2824 62.8261 15.7612H61.0017C60.8759 15.3032 60.8339 14.9493 60.8339 14.2624V13.6795C60.8339 13.055 60.5613 12.7636 60.121 12.7636H59.4499V15.7612H57.6255V15.7195Z" fill="#F3C231"/>
            <path d="M64.8188 15.7195V9.59948H63.6235V8.22559H67.8386V9.59948H66.6433V15.7195H64.8188Z" fill="#F3C231"/>
            <path d="M68.8877 18.1344V8.22571H70.7121V8.95429C71.0476 8.30898 71.2993 8.18408 72.0123 8.18408H72.3688C73.0817 8.18408 73.4382 8.28816 73.6479 8.55878C73.8577 8.82939 73.9415 9.34981 73.9415 10.0368V14.1376C73.9415 14.8454 73.8786 15.1784 73.627 15.4074C73.3753 15.6572 73.0608 15.7405 72.5994 15.7405H72.222C71.4041 15.7405 71.1944 15.6364 70.7121 14.9911V18.1136H68.8877V18.1344ZM72.1171 13.4507V10.5155C72.1171 9.87022 71.9284 9.5996 71.4041 9.5996C70.9218 9.5996 70.6911 9.87022 70.6911 10.4739V13.4715C70.6911 14.0752 70.9218 14.3458 71.4041 14.3458C71.9284 14.3458 72.1171 14.0752 72.1171 13.4507Z" fill="#F3C231"/>
            <path d="M77.3593 15.7407C75.4929 15.7407 75.3042 15.4284 75.3042 13.7423V10.2035C75.3042 8.47569 75.5349 8.20508 77.3593 8.20508H78.3868C80.2532 8.20508 80.4209 8.51733 80.4209 10.2035V13.7423C80.4209 15.4492 80.1903 15.7407 78.3868 15.7407H77.3593ZM78.5965 13.4508V10.4949C78.5965 9.8704 78.4288 9.6206 77.8206 9.6206C77.2754 9.6206 77.0867 9.89121 77.0867 10.4949V13.4508C77.0867 14.0753 77.2754 14.3251 77.8626 14.3251C78.4078 14.3459 78.5965 14.0753 78.5965 13.4508Z" fill="#F3C231"/>
            <path d="M81.8257 15.7197V8.18408H83.6082C84.6567 8.51715 85.4326 9.20409 85.9359 10.7653C86.4391 9.26654 87.215 8.51715 88.2216 8.18408H90.067V15.7197H88.2426V10.0368C87.4667 10.2865 87.0053 11.3898 86.8376 12.5347V15.7197H85.0132V12.5347C84.8454 11.3898 84.3841 10.2865 83.6082 10.0368V15.7197H81.8257Z" fill="#F3C231"/>
            <path d="M93.5483 15.7407C91.6819 15.7407 91.4932 15.4284 91.4932 13.7423V10.2035C91.4932 8.47569 91.7238 8.20508 93.5483 8.20508H94.5758C96.4421 8.20508 96.6099 8.51733 96.6099 10.2035V13.7423C96.6099 15.4492 96.3792 15.7407 94.5758 15.7407H93.5483ZM94.8065 13.4508V10.4949C94.8065 9.8704 94.6387 9.6206 94.0306 9.6206C93.4853 9.6206 93.2966 9.89121 93.2966 10.4949V13.4508C93.2966 14.0753 93.4853 14.3251 94.0725 14.3251C94.6177 14.3459 94.8065 14.0753 94.8065 13.4508Z" fill="#F3C231"/>
            <path d="M98.0361 15.7195V8.22559H99.8605V11.2023H101.328V8.22559H103.153V15.7195H101.328V12.6179H99.8605V15.7195H98.0361Z" fill="#F3C231"/>
            <path d="M105.375 15.7195V9.59948H104.18V8.22559H108.395V9.59948H107.2V15.7195H105.375Z" fill="#F3C231"/>
            <path d="M110.974 15.7613C110.219 15.7613 109.926 15.678 109.695 15.3866C109.485 15.116 109.401 14.5956 109.401 13.8878V9.80777C109.401 9.10001 109.464 8.76694 109.716 8.51715C109.947 8.28816 110.303 8.18408 110.743 8.18408H111.121C111.939 8.18408 112.148 8.30898 112.631 8.95429V8.24653H114.455V15.7405H112.631V15.0119C112.274 15.678 112.065 15.7821 111.352 15.7821H110.974V15.7613ZM112.631 13.4507V10.4531C112.631 9.82859 112.4 9.57879 111.918 9.57879C111.394 9.57879 111.205 9.8494 111.205 10.4947V13.4298C111.205 14.0752 111.394 14.3458 111.918 14.3458C112.4 14.325 112.631 14.0335 112.631 13.4507Z" fill="#F3C231"/>
            <path d="M115.672 15.7197C115.819 15.2409 115.84 15.0327 115.84 14.1792V13.3674C115.84 12.4515 116.259 12.0143 117.329 11.8062C116.154 11.4939 115.84 11.14 115.84 9.99512V9.68287C115.84 8.80858 115.819 8.62123 115.672 8.18408H117.496C117.622 8.62123 117.664 8.95429 117.664 9.57879V10.0576C117.664 10.9319 117.853 11.1817 118.356 11.1817H118.985V8.22571H120.81V11.2233H121.439C121.942 11.2233 122.131 10.9527 122.131 10.0992V9.62042C122.131 8.99593 122.173 8.66286 122.298 8.22571H124.123C123.955 8.64204 123.934 8.85021 123.934 9.7245V10.0368C123.934 11.1608 123.62 11.5355 122.466 11.8478C123.515 12.0351 123.934 12.4931 123.934 13.409V14.2209C123.934 15.0743 123.955 15.2825 124.123 15.7613H122.298C122.173 15.3033 122.131 14.9494 122.131 14.2625V13.6796C122.131 13.0551 121.9 12.7637 121.481 12.7637H120.789V15.7613H118.964V12.7221H118.293C117.874 12.7221 117.643 13.0343 117.643 13.638V14.2209C117.643 14.887 117.601 15.2617 117.475 15.7197H115.672Z" fill="#F3C231"/>
            <path d="M125.318 15.7195V8.22559H127.143V11.2023H128.611V8.22559H130.435V15.7195H128.611V12.6179H127.143V15.7195H125.318Z" fill="#F3C231"/>
            <path d="M132.175 7.47615V5.95654H133.999V7.47615H132.175ZM132.175 15.7195V8.22554H133.999V15.7195H132.175Z" fill="#F3C231"/>
            <path d="M38.9409 33.3098V23.5469H42.38C44.1625 23.5469 44.519 24.1297 44.519 26.1489V26.7734C44.519 28.8759 44.2254 29.5004 42.5478 29.5004H40.975V33.3306H38.9409V33.3098ZM40.975 27.8143H41.6461C42.2752 27.8143 42.4849 27.5436 42.4849 26.5236C42.4849 25.5036 42.2332 25.2122 41.6041 25.2122H40.975V27.8143Z" fill="#F3C231"/>
            <path d="M47.7069 33.3295C45.8406 33.3295 45.6519 33.0173 45.6519 31.3311V27.7923C45.6519 26.0646 45.8825 25.7939 47.7069 25.7939H48.7345C50.6008 25.7939 50.7686 26.1062 50.7686 27.7923V31.3311C50.7686 33.0381 50.5379 33.3295 48.7345 33.3295H47.7069ZM48.9652 31.0397V28.0838C48.9652 27.4593 48.7974 27.2095 48.1893 27.2095C47.644 27.2095 47.4553 27.4801 47.4553 28.0838V31.0397C47.4553 31.6642 47.644 31.914 48.2312 31.914C48.7764 31.914 48.9652 31.6434 48.9652 31.0397Z" fill="#F3C231"/>
            <path d="M54.2079 33.3298C52.3416 33.3298 52.1528 33.0384 52.1528 31.373V26.2105C52.1528 24.2122 52.9078 23.6709 54.9419 23.6709H55.7807C56.5985 23.6709 56.7453 23.6501 57.1857 23.5044V25.2113C56.7663 25.3362 56.4517 25.3779 55.8436 25.3779H54.5854C53.8305 25.3779 53.5788 25.6485 53.5788 26.3354V27.3138C53.9353 26.7101 54.2918 26.5436 55.0048 26.5436H55.4661C57.1228 26.5436 57.2906 26.8142 57.2906 28.5004V31.373C57.2906 33.08 57.0599 33.3298 55.2564 33.3298H54.2079ZM55.4661 31.04V28.8126C55.4661 28.1881 55.2984 27.9383 54.7112 27.9383C54.166 27.9383 53.9563 28.2089 53.9563 28.8126V31.04C53.9563 31.6645 54.145 31.9143 54.7322 31.9143C55.2774 31.9143 55.4661 31.6436 55.4661 31.04Z" fill="#F3C231"/>
            <path d="M60.7084 33.3295C58.8421 33.3295 58.6533 33.0173 58.6533 31.3311V27.7923C58.6533 26.0646 58.884 25.7939 60.7084 25.7939H61.7359C63.6023 25.7939 63.7701 26.1062 63.7701 27.7923V31.3311C63.7701 33.0381 63.5394 33.3295 61.7359 33.3295H60.7084ZM61.9456 31.0397V28.0838C61.9456 27.4593 61.7779 27.2095 61.1698 27.2095C60.6245 27.2095 60.4358 27.4801 60.4358 28.0838V31.0397C60.4358 31.6642 60.6245 31.914 61.2117 31.914C61.7569 31.914 61.9456 31.6434 61.9456 31.0397Z" fill="#F3C231"/>
            <path d="M65.9722 33.3094V27.1893H64.7769V25.8154H68.9919V27.1893H67.7966V33.3094H65.9722Z" fill="#F3C231"/>
            <path d="M73.7098 25.8154H75.2826V33.3094H73.6889V29.6665C73.6889 29.3334 73.7098 29.0004 73.7098 28.6465C73.584 29.0212 73.4372 29.3542 73.2904 29.7081L71.6128 33.3094H70.04V25.8154H71.6338V29.2918C71.6338 29.7081 71.6128 30.1244 71.6128 30.5408C71.7596 30.0828 71.9274 29.6248 72.1371 29.2085L73.7098 25.8154Z" fill="#F3C231"/>
            <path d="M28.6872 19.0711C28.5823 19.0919 28.4775 19.0919 28.3726 19.1128C28.3307 20.2785 27.9951 22.0479 27.5338 23.401C27.0305 24.8581 26.2127 26.3361 25.2271 27.5643C24.3254 28.6884 23.2559 29.6667 21.9977 30.4161C20.4249 31.3737 18.7053 31.9774 16.8599 32.2063C15.2033 32.4145 13.5466 32.3312 11.9319 31.9357C11.3238 31.79 10.7366 31.6235 10.1704 31.3945C10.1495 31.3945 10.1495 31.3945 10.1285 31.3737C9.16385 30.999 8.24116 30.541 7.38138 29.9373C5.99734 29.0006 4.78106 27.8557 3.81643 26.461C3.39703 25.8573 3.01956 25.2328 2.68404 24.5875C2.66307 24.5459 2.6421 24.4834 2.62113 24.4418C2.30657 23.8173 2.03396 23.1512 1.8662 22.4434C1.82426 22.2769 1.78232 22.1103 1.74038 21.923C1.04836 18.5715 1.25806 15.3242 2.89374 12.1809C4.52942 9.03757 7.08779 6.91429 10.3382 5.51958C10.3592 5.51958 10.3592 5.51958 10.3801 5.49877C11.6174 4.97835 12.8966 4.70774 14.2177 4.60366C14.5951 4.58284 14.9726 4.56202 15.371 4.54121C15.392 4.54121 15.413 4.54121 15.413 4.54121C16.3986 4.52039 17.3632 4.62447 18.3279 4.81182C18.3908 4.81182 18.4746 4.83264 18.5376 4.85345C18.6005 4.87427 18.6844 4.87427 18.7473 4.89509C19.3135 5.01999 19.8797 5.18652 20.4249 5.37387C20.5717 5.4155 20.7185 5.47795 20.8653 5.5404C20.9701 5.58203 21.0959 5.62367 21.2008 5.6653C21.2847 5.70693 21.3685 5.74856 21.4524 5.76938C21.5573 5.81101 21.6621 5.87346 21.767 5.9151C21.8509 5.95673 21.9557 5.99836 22.0396 6.04C22.1444 6.08163 22.2283 6.14408 22.3332 6.18571C22.4171 6.22734 22.5219 6.28979 22.6058 6.33143C22.6897 6.37306 22.7945 6.43551 22.8784 6.47714C22.9833 6.53959 23.0671 6.60204 23.172 6.66449C23.2559 6.70612 23.3397 6.76857 23.4236 6.81021C23.5285 6.87266 23.6333 6.95592 23.7382 7.01837C23.8011 7.06 23.885 7.12245 23.9479 7.16409C24.0527 7.24735 24.1786 7.33062 24.2834 7.41388C24.3463 7.45552 24.4092 7.49715 24.4512 7.53878C24.6189 7.66368 24.7867 7.8094 24.9545 7.9343C26.2756 9.03757 27.387 10.3906 28.2887 11.8686C28.3097 11.8894 28.3097 11.9103 28.3307 11.9311C28.2258 11.6813 28.1 11.4523 27.9742 11.2025C27.2612 9.89105 26.3175 8.68369 25.1851 7.66368C24.3044 6.85184 23.3188 6.16489 22.2703 5.58203C22.1864 5.5404 22.0815 5.47795 21.9977 5.43632C21.9767 5.43632 21.9767 5.4155 21.9557 5.4155C21.8928 5.37387 21.8089 5.35305 21.746 5.31142C21.6202 5.24897 21.4734 5.18652 21.3266 5.12407C21.2637 5.08244 21.1798 5.06162 21.0959 5.01999C20.9701 4.95754 20.8443 4.9159 20.7185 4.85345C20.1942 4.64529 19.649 4.45794 19.1038 4.31223C19.0408 4.29141 18.9989 4.27059 18.936 4.27059C17.8036 3.95834 16.6293 3.79181 15.434 3.771H15.3291C14.9936 3.771 14.6581 3.771 14.3435 3.79181C14.2596 3.79181 14.1967 3.79181 14.1338 3.79181C12.7707 3.85426 11.4286 4.08324 10.0865 4.62447C10.0656 4.62447 10.0656 4.62447 10.0446 4.64529C6.50063 6.14408 3.71158 8.30899 1.8662 11.6396C-0.000155722 14.9911 -0.377621 18.5715 0.335369 22.2977C0.377309 22.4642 0.398279 22.6516 0.44022 22.8181C0.44022 22.8181 0.44022 22.8181 0.44022 22.8389C0.649922 23.7132 0.964477 24.5667 1.36291 25.3577C1.69844 26.0447 2.09687 26.7316 2.53725 27.3977C3.56479 28.959 4.88592 30.2704 6.41675 31.3737C7.94758 32.477 9.64617 33.2472 11.4916 33.7468C13.3369 34.2464 15.2243 34.3296 17.1116 34.1839C18.3279 34.0798 19.5022 33.7468 20.6556 33.3929C20.7394 33.3721 20.8233 33.3304 20.8862 33.3096C23.2559 32.3104 25.248 30.9782 26.9047 29.0422C28.1839 27.5851 29.0646 25.9822 29.7986 24.2336C30.197 23.2761 30.4067 22.3393 30.6164 21.3401C30.7842 20.4867 30.8261 19.6332 30.8681 18.7589C30.1551 18.863 29.4211 18.967 28.6872 19.0711Z" fill="#F3C231"/>
            <path d="M24.8076 15.1574L15.9791 16.4063L22.396 1.02295L6.12305 22.9635L13.7982 21.8603L7.02477 36.2861L24.8076 15.1574Z" fill="#F3C231"/>
        </g>
    </symbol>

</svg>


