<svg display="none" xmlns="http://www.w3.org/2000/svg">
    <symbol id="facebook" viewBox="0 0 18 18">
        <g>
            <path d="M12.9103 9.99613L13.3767 6.92477H10.4589V4.93254C10.4589 4.09206 10.8658 3.27234 12.1726 3.27234H13.5V0.657536C13.5 0.657536 12.2959 0.450012 11.1452 0.450012C8.7411 0.450012 7.17123 1.92136 7.17123 4.5839V6.92477H4.5V9.99613H7.17123V17.4213C7.70753 17.5064 8.25616 17.55 8.81507 17.55C9.37397 17.55 9.9226 17.5064 10.4589 17.4213V9.99613H12.9103Z"/>
        </g>
    </symbol>

    <symbol id="telegram" viewBox="0 0 18 18">
        <g>
            <path fill-rule="evenodd" clip-rule="evenodd" d="M1.23741 8.4574C6.06923 6.34056 9.29121 4.945 10.9033 4.27074C15.5063 2.34558 16.4627 2.01116 17.0861 2.00012C17.2232 1.99769 17.5298 2.03186 17.7284 2.19389C17.8961 2.33071 17.9422 2.51553 17.9643 2.64524C17.9864 2.77496 18.0139 3.07046 17.992 3.30136C17.7426 5.93675 16.6633 12.3322 16.1142 15.2838C15.8818 16.5328 15.4244 16.9516 14.9815 16.9926C14.0189 17.0816 13.288 16.3529 12.3558 15.7384C10.897 14.7769 10.0729 14.1783 8.65691 13.24C7.02048 12.1556 8.08131 11.5596 9.01391 10.5856C9.25797 10.3307 13.4988 6.45188 13.5809 6.10001C13.5912 6.05601 13.6007 5.89197 13.5038 5.80535C13.4069 5.71873 13.2639 5.74835 13.1606 5.77191C13.0143 5.8053 10.6839 7.35418 6.16938 10.4185C5.5079 10.8753 4.90875 11.0978 4.37193 11.0862C3.78013 11.0733 2.64175 10.7497 1.79548 10.4731C0.757494 10.1338 -0.0674757 9.95442 0.00436067 9.37821C0.0417775 9.07809 0.452793 8.77115 1.23741 8.4574Z"/>
        </g>
    </symbol>

    <symbol id="viber" viewBox="0 0 18 18">
        <g>
            <path d="M15.3875 1.75569C14.9552 1.34296 13.208 0.0307474 9.31635 0.01292C9.31635 0.01292 4.72707 -0.2734 2.48987 1.84969C1.24452 3.1384 0.806425 5.02405 0.760214 7.36188C0.714002 9.69971 0.654215 14.0809 4.73621 15.2689H4.74013L4.73751 17.0816C4.73751 17.0816 4.71141 17.8155 5.17848 17.9652C5.74346 18.1467 6.07503 17.5889 6.61442 16.9876C6.91049 16.6575 7.31934 16.1727 7.62742 15.8021C10.4192 16.0452 12.5663 15.4896 12.8101 15.4075C13.3738 15.2184 16.5634 14.7954 17.0822 10.4147C17.6177 5.89922 16.8232 3.04305 15.3875 1.75569ZM15.8606 10.0908C15.4228 13.7487 12.8357 13.9786 12.3587 14.1369C12.1559 14.2044 10.2701 14.6898 7.89868 14.5296C7.89868 14.5296 6.13169 16.7351 5.57976 17.3085C5.4936 17.3982 5.39231 17.4344 5.32469 17.4166C5.22965 17.3925 5.20354 17.2761 5.20459 17.1059C5.20615 16.8628 5.21973 14.0936 5.21973 14.0936C5.21764 14.0936 5.21973 14.0936 5.21973 14.0936C1.76668 13.1018 1.96797 9.37287 2.00713 7.42023C2.0463 5.46758 2.40084 3.86797 3.45404 2.79211C5.34636 1.01882 9.24455 1.2838 9.24455 1.2838C12.5365 1.29866 14.114 2.32428 14.4797 2.66786C15.6943 3.74372 16.313 6.31817 15.8606 10.0898V10.0908Z" />
            <path fill-rule="evenodd" clip-rule="evenodd" d="M9.38324 5.84048C9.38957 5.71489 9.49311 5.6184 9.6145 5.62495C10.0687 5.64946 10.4465 5.79169 10.7156 6.07956C10.9837 6.36633 11.1151 6.76695 11.1382 7.24809C11.1442 7.37369 11.0507 7.48056 10.9293 7.48679C10.8079 7.49303 10.7046 7.39625 10.6985 7.27065C10.6788 6.85879 10.5696 6.57841 10.3992 6.39617C10.2299 6.21503 9.97148 6.10025 9.59156 6.07974C9.47018 6.07319 9.37691 5.96607 9.38324 5.84048Z" />
            <path fill-rule="evenodd" clip-rule="evenodd" d="M9.04979 4.61371C9.05866 4.48829 9.16413 4.39406 9.28536 4.40324C10.2096 4.47322 10.9535 4.79994 11.4954 5.41192L11.4955 5.41201C12.0315 6.01796 12.2862 6.77176 12.2678 7.65593C12.2651 7.78166 12.1645 7.88138 12.0429 7.87866C11.9214 7.87594 11.825 7.77181 11.8277 7.64608C11.844 6.86635 11.6224 6.22998 11.1708 5.71946C10.7206 5.21107 10.0912 4.92088 9.25323 4.85743C9.132 4.84825 9.04092 4.73914 9.04979 4.61371Z" />
            <path fill-rule="evenodd" clip-rule="evenodd" d="M8.66114 3.44755C8.66198 3.3218 8.76121 3.22057 8.88276 3.22144C10.16 3.23065 11.2396 3.67057 12.1065 4.54482C12.9805 5.42638 13.4128 6.62654 13.4238 8.11712C13.4247 8.24287 13.3269 8.34559 13.2053 8.34655C13.0838 8.34751 12.9845 8.24634 12.9836 8.12058C12.9733 6.72384 12.5717 5.65001 11.7992 4.87092C11.0195 4.08451 10.0514 3.68528 8.87969 3.67684C8.75814 3.67596 8.66029 3.57331 8.66114 3.44755Z" />
            <path d="M9.64685 10.3092C9.64685 10.3092 9.95623 10.3362 10.1228 10.1239L10.4476 9.70116C10.6042 9.49155 10.9823 9.35785 11.3525 9.57124C11.6299 9.73493 11.8993 9.91289 12.1595 10.1044C12.4052 10.2914 12.9083 10.7257 12.9098 10.7257C13.1495 10.935 13.2049 11.2424 13.0417 11.5666C13.0417 11.5685 13.0404 11.5717 13.0404 11.5733C12.8607 11.8956 12.6325 12.1863 12.3644 12.4344C12.3613 12.4361 12.3613 12.4377 12.3584 12.4393C12.1255 12.6406 11.8968 12.7551 11.6721 12.7826C11.639 12.7886 11.6053 12.7908 11.5718 12.7891C11.4727 12.7901 11.3741 12.7744 11.2799 12.7426L11.2726 12.7316C10.9264 12.6305 10.3484 12.3777 9.38577 11.8283C8.82873 11.5141 8.2984 11.1517 7.80049 10.7449C7.55092 10.5411 7.31286 10.3227 7.08748 10.0907L7.06346 10.0658L7.03944 10.041L7.01542 10.0161C7.00732 10.008 6.99949 9.99964 6.9914 9.99126C6.76715 9.75809 6.55603 9.51179 6.35906 9.25358C5.96593 8.7385 5.61561 8.18992 5.31187 7.61373C4.78083 6.61755 4.53646 6.02006 4.43881 5.66135L4.42811 5.65379C4.3975 5.5563 4.38242 5.4543 4.38347 5.3518C4.38164 5.31711 4.38365 5.28231 4.38947 5.24808C4.41749 5.01596 4.52828 4.77907 4.72183 4.53741C4.72339 4.53444 4.72496 4.53444 4.72652 4.5312C4.96628 4.25388 5.24725 4.0179 5.55885 3.83215C5.56042 3.83215 5.56355 3.83053 5.56538 3.83053C5.87867 3.66171 6.17578 3.71897 6.37786 3.96558C6.37943 3.96721 6.79846 4.48771 6.97834 4.74189C7.16351 5.01139 7.33552 5.29032 7.49372 5.57762C7.69997 5.96037 7.57074 6.3523 7.36814 6.51383L6.95955 6.84985C6.75329 7.02218 6.78045 7.34227 6.78045 7.34227C6.78045 7.34227 7.38563 9.71197 9.64685 10.3092Z" />
        </g>
    </symbol>

    <symbol id="instagram" viewBox="0 0 19 18">
        <g>
            <path d="M18.9467 5.28903C18.9011 4.33066 18.7377 3.67494 18.5059 3.10208C18.2626 2.51121 17.9395 2.00681 17.4112 1.50961C16.8829 1.01241 16.3546 0.698959 15.7313 0.471978C15.127 0.248599 14.4352 0.0972778 13.4242 0.0540432C12.4094 0.0108086 12.0864 0 9.50945 0C6.92874 0 6.60567 0.0108086 5.59467 0.0540432C4.58367 0.0972778 3.89193 0.252202 3.28761 0.471978C2.66048 0.702562 2.12838 1.00881 1.60387 1.50961C1.07937 2.01041 0.7487 2.51121 0.509252 3.10208C0.277406 3.67494 0.113973 4.33066 0.0683639 5.28903C0.0227548 6.251 0.0113525 6.55725 0.0113525 9C0.0113525 11.4464 0.0227548 11.7526 0.0683639 12.711C0.113973 13.6693 0.277406 14.3251 0.509252 14.8979C0.752501 15.4888 1.07557 15.9932 1.60387 16.4904C2.12838 16.9912 2.66048 17.301 3.28381 17.528C3.88813 17.7514 4.57987 17.9027 5.59087 17.946C6.60567 17.9892 6.92874 18 9.50565 18C12.0864 18 12.4094 17.9892 13.4204 17.946C14.4314 17.9027 15.1232 17.7478 15.7275 17.528C16.3508 17.2974 16.8829 16.9912 17.4074 16.4904C17.9319 15.9896 18.2626 15.4888 18.5021 14.8979C18.7377 14.3251 18.8973 13.6693 18.9429 12.711C18.9885 11.749 19 11.4428 19 9C19 6.55725 18.9923 6.2474 18.9467 5.28903ZM17.2402 12.6389C17.1984 13.518 17.0426 13.9972 16.9133 14.3106C16.7423 14.7286 16.5333 15.0312 16.1988 15.3483C15.8643 15.6653 15.5489 15.8563 15.1042 16.0256C14.7697 16.1481 14.2642 16.2958 13.3406 16.3355C12.341 16.3787 12.0408 16.3895 9.50185 16.3895C6.96294 16.3895 6.66268 16.3787 5.66308 16.3355C4.7357 16.2958 4.2302 16.1481 3.89953 16.0256C3.45864 15.8635 3.13938 15.6653 2.80491 15.3483C2.47044 15.0312 2.269 14.7322 2.09037 14.3106C1.96114 13.9936 1.80531 13.5144 1.7635 12.6389C1.71789 11.6914 1.70649 11.4067 1.70649 9C1.70649 6.59328 1.71789 6.30865 1.7635 5.36109C1.80531 4.48199 1.96114 4.0028 2.09037 3.68935C2.2614 3.27142 2.47044 2.96878 2.80491 2.65172C3.13938 2.33467 3.45484 2.14372 3.89953 1.97438C4.234 1.85188 4.7395 1.70416 5.66308 1.66453C6.66268 1.6213 6.96294 1.61049 9.50185 1.61049C12.0408 1.61049 12.341 1.6213 13.3406 1.66453C14.268 1.70416 14.7735 1.85188 15.1042 1.97438C15.5451 2.13651 15.8643 2.33467 16.1988 2.65172C16.5333 2.96878 16.7347 3.26781 16.9133 3.68935C17.0426 4.00641 17.1984 4.48559 17.2402 5.36109C17.2858 6.30865 17.2972 6.59328 17.2972 9C17.2972 11.4067 17.282 11.6914 17.2402 12.6389Z" />
            <path d="M9.502 4.37378C6.80346 4.37378 4.62183 6.44544 4.62183 8.99988C4.62183 11.5579 6.80726 13.626 9.502 13.626C12.1967 13.626 14.3822 11.5507 14.3822 8.99988C14.3822 6.44183 12.2005 4.37378 9.502 4.37378ZM9.502 12.0011C7.75365 12.0011 6.33597 10.6572 6.33597 8.99988C6.33597 7.34255 7.75365 5.99868 9.502 5.99868C11.2504 5.99868 12.668 7.34255 12.668 8.99988C12.668 10.6572 11.2504 12.0011 9.502 12.0011Z"/>
            <path d="M14.5721 5.27452C15.2018 5.27452 15.7123 4.7906 15.7123 4.19366C15.7123 3.59671 15.2018 3.11279 14.5721 3.11279C13.9424 3.11279 13.4319 3.59671 13.4319 4.19366C13.4319 4.7906 13.9424 5.27452 14.5721 5.27452Z" />
        </g>
    </symbol>

    <symbol id="linkedin" viewBox="0 0 18 18">
        <g>
            <path d="M0 2.40127C0 1.82211 0.202708 1.34431 0.608108 0.96787C1.01351 0.591416 1.54055 0.403198 2.18919 0.403198C2.82626 0.403198 3.34169 0.588515 3.73552 0.959183C4.14092 1.34142 4.34363 1.83948 4.34363 2.45339C4.34363 3.00938 4.14672 3.47268 3.7529 3.84335C3.3475 4.22559 2.81467 4.41671 2.15444 4.41671H2.13707C1.49999 4.41671 0.984562 4.22559 0.590734 3.84335C0.196905 3.46111 0 2.98041 0 2.40127ZM0.225869 17.604V5.99779H4.08301V17.604H0.225869ZM6.22008 17.604H10.0772V11.1233C10.0772 10.7179 10.1236 10.4051 10.2162 10.1851C10.3784 9.79122 10.6245 9.45821 10.9546 9.18602C11.2847 8.91381 11.6988 8.77772 12.1969 8.77772C13.4942 8.77772 14.1429 9.65223 14.1429 11.4013V17.604H18V10.9495C18 9.23524 17.5946 7.93505 16.7838 7.04895C15.973 6.16285 14.9015 5.7198 13.5695 5.7198C12.0753 5.7198 10.9112 6.36266 10.0772 7.64837V7.68312H10.0598L10.0772 7.64837V5.99779H6.22008C6.24324 6.36844 6.25483 7.52095 6.25483 9.45532C6.25483 11.3897 6.24324 14.1059 6.22008 17.604Z"/>
        </g>
    </symbol>

    <symbol id="tiktok" viewBox="0 0 18 18">
        <g>
            <path d="M12.9302 0H9.82268V12.2608C9.82268 13.7218 8.62751 14.9218 7.14015 14.9218C5.65279 14.9218 4.4576 13.7218 4.4576 12.2608C4.4576 10.8261 5.62624 9.65215 7.06049 9.6V6.52175C3.89984 6.5739 1.3501 9.10435 1.3501 12.2608C1.3501 15.4435 3.95296 18 7.16672 18C10.3804 18 12.9833 15.4174 12.9833 12.2608V5.9739C14.152 6.8087 15.5862 7.30435 17.1001 7.33045V4.25217C14.7628 4.17391 12.9302 2.29565 12.9302 0Z"/>
        </g>
    </symbol>

    <symbol id="whatsApp" viewBox="0 0 18 18">
        <g>
            <path d="M0 18L1.2722 13.3802C0.485673 12.0242 0.0730658 10.4886 0.0773638 8.91873C0.0773638 3.99953 4.10028 0 9.03867 0C11.437 0 13.6891 0.928232 15.3782 2.61359C17.0716 4.29895 18.0043 6.5404 18 8.92301C18 13.8422 13.9771 17.8417 9.03438 17.8417H9.03008C7.53008 17.8417 6.05587 17.4653 4.74498 16.7552L0 18ZM4.97277 15.1426L5.24355 15.3051C6.38681 15.981 7.6977 16.336 9.03438 16.3403H9.03867C13.1433 16.3403 16.4871 13.0166 16.4871 8.92728C16.4871 6.94677 15.7135 5.08603 14.308 3.68299C12.9026 2.27994 11.0286 1.50998 9.03867 1.50998C4.93409 1.5057 1.59026 4.82937 1.59026 8.91873C1.59026 10.3175 1.98137 11.682 2.72922 12.8626L2.90544 13.145L2.15329 15.8783L4.97277 15.1426Z" />
            <path d="M0 18L1.2722 13.3802C0.485673 12.0242 0.0730658 10.4886 0.0773638 8.91873C0.0773638 3.99953 4.10028 0 9.03867 0C11.437 0 13.6891 0.928232 15.3782 2.61359C17.0716 4.29895 18.0043 6.5404 18 8.92301C18 13.8422 13.9771 17.8417 9.03438 17.8417H9.03008C7.53008 17.8417 6.05587 17.4653 4.74498 16.7552L0 18ZM4.97277 15.1426L5.24355 15.3051C6.38681 15.981 7.6977 16.336 9.03438 16.3403H9.03867C13.1433 16.3403 16.4871 13.0166 16.4871 8.92728C16.4871 6.94677 15.7135 5.08603 14.308 3.68299C12.9026 2.27994 11.0286 1.50998 9.03867 1.50998C4.93409 1.5057 1.59026 4.82937 1.59026 8.91873C1.59026 10.3175 1.98137 11.682 2.72922 12.8626L2.90544 13.145L2.15329 15.8783L4.97277 15.1426Z" />
            <path fill-rule="evenodd" clip-rule="evenodd" d="M6.79938 5.1887C6.63176 4.81655 6.45554 4.80799 6.29651 4.80372C6.16757 4.79944 6.01714 4.79944 5.86672 4.79944C5.71629 4.79944 5.4756 4.85505 5.26929 5.07748C5.06299 5.29991 4.48706 5.83889 4.48706 6.93822C4.48706 8.03328 5.29078 9.09412 5.40253 9.24383C5.51428 9.39355 6.95411 11.7163 9.22774 12.6103C11.1189 13.3546 11.5057 13.2049 11.914 13.1664C12.3223 13.1279 13.2378 12.6274 13.4269 12.1055C13.6117 11.5837 13.6117 11.1388 13.5558 11.0447C13.4999 10.9506 13.3495 10.895 13.126 10.7838C12.9025 10.6725 11.8022 10.1336 11.5959 10.0566C11.3896 9.98385 11.2392 9.94535 11.0931 10.1678C10.9426 10.3902 10.5128 10.8907 10.3839 11.0404C10.255 11.1901 10.1217 11.2072 9.89823 11.096C9.67473 10.9848 8.95267 10.7495 8.09737 9.98813C7.43118 9.39782 6.97989 8.66636 6.85095 8.44393C6.72201 8.22149 6.83806 8.10172 6.94981 7.9905C7.04866 7.89212 7.1733 7.72957 7.28505 7.60124C7.3968 7.47292 7.43548 7.37881 7.50855 7.2291C7.58161 7.07938 7.54723 6.95105 7.49136 6.83984C7.43548 6.7329 6.99709 5.62929 6.79938 5.1887Z"/>
        </g>
    </symbol>

    <symbol id="youTube" viewBox="0 0 18 18">
        <g>
            <path fill-rule="evenodd" clip-rule="evenodd" d="M16.0428 3.08545C16.8138 3.29303 17.4217 3.90093 17.6292 4.67194C18.0147 6.0805 17.9999 9.01623 17.9999 9.01623C17.9999 9.01623 17.9999 11.9371 17.6292 13.3457C17.4217 14.1167 16.8138 14.7246 16.0428 14.9322C14.6342 15.3029 8.99996 15.3029 8.99996 15.3029C8.99996 15.3029 3.38055 15.3029 1.95716 14.9174C1.18616 14.7098 0.578251 14.1019 0.370674 13.3309C0 11.9371 0 9.00141 0 9.00141C0 9.00141 0 6.0805 0.370674 4.67194C0.578251 3.90093 1.20098 3.2782 1.95716 3.07063C3.36572 2.69995 8.99996 2.69995 8.99996 2.69995C8.99996 2.69995 14.6342 2.69995 16.0428 3.08545ZM11.8912 9.00148L7.20593 11.7V6.30298L11.8912 9.00148Z" />
        </g>
    </symbol>

    <symbol id="mail" viewBox="0 0 20 14">
        <g>
            <path d="M1.46341 0.333344C1.17966 0.333344 0.917439 0.413727 0.69361 0.549132L9.25305 7.63989C9.71037 8.01877 10.2736 8.01875 10.7317 7.63989L19.3064 0.549132C19.0826 0.413727 18.8203 0.333344 18.5366 0.333344H1.46341ZM0.0838536 1.29318C0.0316584 1.4403 0 1.59703 0 1.76191V12.2381C0 13.0295 0.652683 13.6667 1.46341 13.6667H18.5366C19.3473 13.6667 20 13.0295 20 12.2381V1.76191C20 1.59703 19.9683 1.4403 19.9161 1.29318L11.3643 8.36906C10.5712 9.02496 9.41334 9.02601 8.62044 8.36906L0.0838536 1.29318Z" />
        </g>
    </symbol>

    <symbol id="mapPoint" viewBox="0 0 12 18">
        <g>
            <path d="M6 0.428558C2.70701 0.428558 0 2.87415 0 6.3626C0 7.60752 0.307899 8.47352 0.879808 9.43266L5.59615 17.3447C5.63608 17.4134 5.69459 17.4706 5.76561 17.5105C5.83663 17.5504 5.91756 17.5714 6 17.5714C6.08244 17.5714 6.16337 17.5504 6.23439 17.5105C6.30541 17.4706 6.36392 17.4134 6.40385 17.3447L11.1202 9.43266C11.6921 8.4735 12 7.6075 12 6.3626C12 2.87415 9.29299 0.428558 6 0.428558ZM6 3.50547C7.5294 3.50547 8.76923 4.68626 8.76923 6.14282C8.76923 7.59937 7.5294 8.78017 6 8.78017C4.4706 8.78017 3.23077 7.59937 3.23077 6.14282C3.23077 4.68626 4.4706 3.50547 6 3.50547Z" />
        </g>
    </symbol>

    <symbol id="phone" viewBox="0 0 22 21">
        <g>
            <path d="M22 10.5025C22 10.8437 21.7099 11.1203 21.3521 11.1203C20.9943 11.1203 20.7043 10.8437 20.7043 10.5025C20.7043 5.38454 16.3534 1.23559 10.9863 1.23559C10.6285 1.23559 10.3384 0.958996 10.3384 0.617796C10.3384 0.276597 10.6285 0 10.9863 0C17.069 0 22 4.70215 22 10.5025ZM18.1128 10.5025C18.1128 10.8437 17.8227 11.1203 17.4649 11.1203C17.1071 11.1203 16.8171 10.8437 16.8171 10.5025C16.8171 7.43174 14.2065 4.94237 10.9863 4.94237C10.6285 4.94237 10.3384 4.66577 10.3384 4.32457C10.3384 3.98337 10.6285 3.70678 10.9863 3.70678C14.9222 3.70678 18.1128 6.74934 18.1128 10.5025ZM18.4259 18.2823L16.2482 20.3589C14.3054 22.2115 8.07722 19.7762 4.68036 16.537C1.28318 13.2975 -1.27056 7.35891 0.672421 5.5061L2.85015 3.42945C3.50043 2.80935 4.53018 2.86133 5.11283 3.54043L8.00128 6.907C8.55264 7.54962 8.50353 8.52281 7.88858 9.10922L6.51272 10.4212C6.33912 10.5868 6.29163 10.93 6.41372 11.1241C6.45107 11.1918 6.47915 11.2425 6.52496 11.3191C6.60505 11.4529 6.70419 11.6056 6.82297 11.7735C7.16639 12.259 7.59603 12.7639 8.11658 13.2603C8.63711 13.7566 9.16721 14.1667 9.67739 14.4948C9.85388 14.6083 10.0144 14.7031 10.1552 14.7798C10.2357 14.8236 10.2892 14.8505 10.3118 14.8611C10.5617 14.9979 10.9225 14.9531 11.0938 14.7897L12.4697 13.4777C13.0844 12.8915 14.1057 12.8449 14.7791 13.3702L18.3095 16.1246C19.0224 16.6808 19.0768 17.6616 18.4259 18.2823ZM5.5965 9.54752L6.97236 8.23552C7.11591 8.09864 7.12888 7.84146 6.99842 7.6894L4.10999 4.32284C4.01161 4.20817 3.87329 4.20119 3.76637 4.30315L1.58864 6.3798C0.36998 7.5419 2.65694 12.8601 5.59658 15.6633C8.53591 18.4662 14.1135 20.6471 15.3319 19.4852L17.5097 17.4086C17.6172 17.306 17.61 17.1753 17.489 17.0809L13.9586 14.3265C13.7996 14.2025 13.5291 14.2148 13.3859 14.3514L12.01 15.6634C11.4287 16.2177 10.4381 16.3455 9.72231 15.9615C9.55622 15.8823 9.29091 15.7366 8.95287 15.5192C8.37644 15.1485 7.78217 14.6888 7.20036 14.134C6.61859 13.5792 6.13688 13.0131 5.74878 12.4645C5.52281 12.145 5.37092 11.8939 5.28775 11.7356C4.87545 11.0532 5.01261 10.1043 5.5965 9.54752Z" fill="#F13B81"/>
        </g>
    </symbol>

</svg>


