<?xml version="1.0" standalone="no"?>
<!DOCTYPE svg PUBLIC "-//W3C//DTD SVG 20010904//EN"
 "http://www.w3.org/TR/2001/REC-SVG-20010904/DTD/svg10.dtd">
<svg version="1.0" xmlns="http://www.w3.org/2000/svg"
 width="90.000000pt" height="90.000000pt" viewBox="0 0 90.000000 90.000000"
 preserveAspectRatio="xMidYMid meet">
<metadata>
Created by potrace 1.14, written by Peter Selinger 2001-2017
</metadata>
<g transform="translate(0.000000,90.000000) scale(0.100000,-0.100000)"
fill="#000000" stroke="none">
<path d="M577 841 c-16 -28 -18 -28 -64 -19 -80 16 -178 2 -246 -34 -143 -77
-220 -205 -216 -360 3 -122 57 -222 163 -301 28 -22 53 -41 55 -42 2 -2 -7
-21 -19 -42 l-23 -38 36 37 35 37 44 -14 c25 -7 79 -12 120 -11 139 5 268 90
331 218 25 51 45 120 41 146 -1 6 -2 16 -3 20 0 5 -14 7 -29 4 -25 -3 -29 -9
-39 -61 -15 -79 -38 -125 -91 -178 -76 -78 -186 -113 -299 -96 -40 6 -41 16
-5 57 15 18 45 54 67 80 22 26 49 58 60 70 11 12 36 42 55 66 19 23 48 57 63
74 15 17 37 44 49 60 l21 28 -29 -5 c-16 -4 -45 -8 -64 -11 -19 -2 -57 -8 -83
-12 l-48 -6 16 38 c9 22 23 55 30 74 7 19 27 65 44 102 l31 67 50 -29 c27 -16
50 -26 50 -21 0 5 -21 21 -47 37 -27 15 -50 28 -52 30 -2 2 4 15 13 28 18 28
20 36 8 36 -4 0 -15 -13 -25 -29z m-41 -43 c4 -5 -157 -231 -219 -308 -7 -8
-28 -37 -47 -65 -19 -27 -41 -56 -48 -64 -7 -7 -11 -15 -9 -18 4 -3 103 10
164 23 21 4 22 2 13 -22 -6 -15 -28 -63 -50 -107 -22 -44 -40 -86 -40 -93 0
-37 -113 49 -158 119 -105 166 -57 381 109 487 71 46 123 60 207 56 39 -1 75
-5 78 -8z"/>
<path d="M690 726 c0 -4 12 -19 26 -34 20 -21 24 -22 16 -6 -11 22 -42 51 -42
40z"/>
</g>
</svg>
